<svg width="150" height="30" viewBox="0 0 150 30" fill="none" xmlns="http://www.w3.org/2000/svg">
<path d="M34.6536 22.6357C29.0008 16.4228 24.6987 9.09928 22.0172 1.14554C21.8371 0.615283 21.3369 0.255114 20.7767 0.255114C18.5955 -0.085038 16.4245 -0.085038 14.2433 0.255114C13.683 0.255114 13.1828 0.615283 13.0027 1.14554C10.3114 9.09928 6.00919 16.4228 0.346332 22.6357C0.0261701 22.9858 -0.0838855 23.486 0.0661903 23.9263C0.746534 25.9673 1.77706 27.8481 3.08771 29.4989C3.39787 29.8891 3.90813 30.0792 4.39837 29.9691C13.0227 28.0582 21.9772 28.0582 30.6016 29.9691C31.0918 30.0792 31.6021 29.8891 31.9123 29.4989C33.2229 27.8481 34.2535 25.9673 34.9338 23.9263C35.0839 23.486 34.9738 22.9858 34.6536 22.6357ZM30.3115 25.587L25.0188 22.4655C20.3764 19.7243 14.6135 19.7243 9.9812 22.4655L4.68853 25.587L4.09822 24.5866L9.66103 21.305C14.1633 18.6438 16.9247 13.8015 16.9247 8.57903V3.23652H18.0953V8.57903C18.0953 13.8115 20.8567 18.6438 25.3589 21.305L30.9118 24.5866L30.3115 25.587Z" fill="#0A0A0A"/>
<path d="M51.3379 23V8.70312H57.1387C58.5645 8.70312 59.707 9.06445 60.5664 9.78711C61.4258 10.5098 61.8555 11.4993 61.8555 12.7559C61.8555 13.7585 61.6309 14.5592 61.1816 15.1582C60.7389 15.7507 60.1107 16.151 59.2969 16.3594V16.3984C59.7982 16.4961 60.2148 16.724 60.5469 17.082C60.8854 17.4336 61.123 17.8405 61.2598 18.3027C61.403 18.7585 61.5137 19.25 61.5918 19.7773C61.6699 20.3047 61.7122 20.7897 61.7188 21.2324C61.7318 21.6751 61.7643 22.0527 61.8164 22.3652C61.8685 22.6712 61.9499 22.8438 62.0605 22.8828V23H60.1172C60.026 22.9154 59.9642 22.707 59.9316 22.375C59.9056 22.0365 59.8958 21.6589 59.9023 21.2422C59.9089 20.819 59.873 20.3698 59.7949 19.8945C59.7233 19.4128 59.6094 18.9766 59.4531 18.5859C59.3034 18.1953 59.0397 17.8698 58.6621 17.6094C58.2845 17.349 57.8092 17.2188 57.2363 17.2188H53.1445V23H51.3379ZM53.1445 10.3047V15.6172H56.7188C57.0768 15.6172 57.3861 15.6074 57.6465 15.5879C57.9069 15.5618 58.1999 15.4967 58.5254 15.3926C58.8509 15.2884 59.1146 15.1484 59.3164 14.9727C59.5247 14.7904 59.7005 14.5299 59.8438 14.1914C59.987 13.8464 60.0586 13.4362 60.0586 12.9609C60.0586 12.4857 59.987 12.0788 59.8438 11.7402C59.7005 11.3952 59.5247 11.1348 59.3164 10.959C59.1146 10.7767 58.8509 10.6335 58.5254 10.5293C58.1999 10.4251 57.9069 10.3633 57.6465 10.3438C57.3861 10.3177 57.0768 10.3047 56.7188 10.3047H53.1445ZM65.8008 14.7969H73.1348V16.3984H65.8008V21.3984H74.3359V23H63.9941V8.70312H74.0918V10.3047H65.8008V14.7969ZM86.4844 13.4199C86.4258 13.1204 86.3379 12.8275 86.2207 12.541C86.11 12.2546 85.9408 11.9551 85.7129 11.6426C85.4915 11.3301 85.2279 11.0599 84.9219 10.832C84.6224 10.5977 84.235 10.4056 83.7598 10.2559C83.291 10.0996 82.7734 10.0215 82.207 10.0215C81.5495 10.0215 80.9473 10.1322 80.4004 10.3535C79.86 10.5749 79.4043 10.8711 79.0332 11.2422C78.6686 11.6133 78.3594 12.0495 78.1055 12.5508C77.8516 13.0521 77.666 13.5794 77.5488 14.1328C77.4382 14.6797 77.3828 15.2493 77.3828 15.8418C77.3828 16.4342 77.4382 17.0072 77.5488 17.5605C77.666 18.1139 77.8516 18.6445 78.1055 19.1523C78.3594 19.6536 78.6686 20.0898 79.0332 20.4609C79.4043 20.832 79.86 21.1283 80.4004 21.3496C80.9473 21.571 81.5495 21.6816 82.207 21.6816C82.7865 21.6816 83.3138 21.6068 83.7891 21.457C84.2643 21.3008 84.6582 21.099 84.9707 20.8516C85.2897 20.6042 85.5599 20.3112 85.7812 19.9727C86.0091 19.6341 86.1751 19.2891 86.2793 18.9375C86.39 18.5859 86.4583 18.2214 86.4844 17.8438H88.2812C88.1706 18.9049 87.8613 19.8424 87.3535 20.6562C86.8457 21.4701 86.1458 22.1113 85.2539 22.5801C84.3685 23.0488 83.3529 23.2832 82.207 23.2832C80.918 23.2832 79.7689 22.9642 78.7598 22.3262C77.7507 21.6882 76.9694 20.806 76.416 19.6797C75.8626 18.5469 75.5859 17.2676 75.5859 15.8418C75.5859 14.4225 75.8626 13.1497 76.416 12.0234C76.9694 10.8971 77.7507 10.015 78.7598 9.37695C79.7754 8.73893 80.9245 8.41992 82.207 8.41992C83.0599 8.41992 83.8509 8.55339 84.5801 8.82031C85.3092 9.08073 85.9277 9.44206 86.4355 9.9043C86.9434 10.36 87.3568 10.8906 87.6758 11.4961C87.9948 12.0951 88.1966 12.7363 88.2812 13.4199H86.4844ZM88.457 8.70312H90.4004L94.541 15.6953H94.5801L98.7402 8.70312H100.684L95.459 17.1406V23H93.6621V17.1406L88.457 8.70312ZM111.367 13.4199C111.309 13.1204 111.221 12.8275 111.104 12.541C110.993 12.2546 110.824 11.9551 110.596 11.6426C110.374 11.3301 110.111 11.0599 109.805 10.832C109.505 10.5977 109.118 10.4056 108.643 10.2559C108.174 10.0996 107.656 10.0215 107.09 10.0215C106.432 10.0215 105.83 10.1322 105.283 10.3535C104.743 10.5749 104.287 10.8711 103.916 11.2422C103.551 11.6133 103.242 12.0495 102.988 12.5508C102.734 13.0521 102.549 13.5794 102.432 14.1328C102.321 14.6797 102.266 15.2493 102.266 15.8418C102.266 16.4342 102.321 17.0072 102.432 17.5605C102.549 18.1139 102.734 18.6445 102.988 19.1523C103.242 19.6536 103.551 20.0898 103.916 20.4609C104.287 20.832 104.743 21.1283 105.283 21.3496C105.83 21.571 106.432 21.6816 107.09 21.6816C107.669 21.6816 108.197 21.6068 108.672 21.457C109.147 21.3008 109.541 21.099 109.854 20.8516C110.173 20.6042 110.443 20.3112 110.664 19.9727C110.892 19.6341 111.058 19.2891 111.162 18.9375C111.273 18.5859 111.341 18.2214 111.367 17.8438H113.164C113.053 18.9049 112.744 19.8424 112.236 20.6562C111.729 21.4701 111.029 22.1113 110.137 22.5801C109.251 23.0488 108.236 23.2832 107.09 23.2832C105.801 23.2832 104.652 22.9642 103.643 22.3262C102.633 21.6882 101.852 20.806 101.299 19.6797C100.745 18.5469 100.469 17.2676 100.469 15.8418C100.469 14.4225 100.745 13.1497 101.299 12.0234C101.852 10.8971 102.633 10.015 103.643 9.37695C104.658 8.73893 105.807 8.41992 107.09 8.41992C107.943 8.41992 108.734 8.55339 109.463 8.82031C110.192 9.08073 110.811 9.44206 111.318 9.9043C111.826 10.36 112.24 10.8906 112.559 11.4961C112.878 12.0951 113.079 12.7363 113.164 13.4199H111.367ZM115.186 8.70312H116.992V21.3984H124.492V23H115.186V8.70312ZM128.066 14.7969H135.4V16.3984H128.066V21.3984H136.602V23H126.26V8.70312H136.357V10.3047H128.066V14.7969ZM142.646 18.0586C141.305 18.0586 140.176 17.5996 139.258 16.6816C138.34 15.7572 137.881 14.6048 137.881 13.2246C137.881 11.8444 138.34 10.6921 139.258 9.76758C140.182 8.8431 141.312 8.38086 142.646 8.38086C143.981 8.38086 145.107 8.8431 146.025 9.76758C146.943 10.6921 147.402 11.8444 147.402 13.2246C147.402 14.6048 146.943 15.7572 146.025 16.6816C145.107 17.5996 143.981 18.0586 142.646 18.0586ZM139.824 16.1152C140.592 16.877 141.533 17.2578 142.646 17.2578C143.76 17.2578 144.697 16.877 145.459 16.1152C146.221 15.347 146.602 14.3835 146.602 13.2246C146.602 12.0723 146.217 11.112 145.449 10.3438C144.688 9.56901 143.753 9.18164 142.646 9.18164C141.54 9.18164 140.602 9.56901 139.834 10.3438C139.066 11.112 138.682 12.0723 138.682 13.2246C138.682 14.3835 139.062 15.347 139.824 16.1152ZM140.879 15.7441V10.5977H142.959C143.473 10.5977 143.887 10.7311 144.199 10.998C144.512 11.265 144.668 11.6198 144.668 12.0625C144.668 12.7786 144.359 13.2116 143.74 13.3613V13.3809C144.001 13.4329 144.199 13.5827 144.336 13.8301C144.473 14.071 144.548 14.3249 144.561 14.5918C144.58 14.8587 144.6 15.1061 144.619 15.334C144.639 15.5618 144.674 15.6823 144.727 15.6953V15.7441H143.828C143.789 15.7051 143.763 15.5684 143.75 15.334C143.737 15.0931 143.721 14.8555 143.701 14.6211C143.682 14.3802 143.581 14.1621 143.398 13.9668C143.216 13.765 142.952 13.6641 142.607 13.6641H141.719V15.7441H140.879ZM141.719 11.3789V12.9023H142.607C142.764 12.9023 142.874 12.9023 142.939 12.9023C143.011 12.8958 143.112 12.8828 143.242 12.8633C143.379 12.8372 143.477 12.8014 143.535 12.7559C143.6 12.7038 143.659 12.6257 143.711 12.5215C143.77 12.4173 143.799 12.2904 143.799 12.1406C143.799 11.9844 143.77 11.8574 143.711 11.7598C143.659 11.6556 143.604 11.5807 143.545 11.5352C143.493 11.4831 143.392 11.444 143.242 11.418C143.099 11.3919 143.001 11.3789 142.949 11.3789C142.897 11.3789 142.783 11.3789 142.607 11.3789H141.719Z" fill="#0A0A0A"/>
</svg>
