<svg width="140" height="20" viewBox="0 0 140 20" fill="none" xmlns="http://www.w3.org/2000/svg">
<path d="M9.07088 0.648363C9.41462 -0.216122 10.5854 -0.216121 10.9291 0.648365L12.9579 5.75071C13.1029 6.11516 13.4306 6.36417 13.8067 6.39571L19.0727 6.83732C19.9649 6.91215 20.3267 8.07684 19.6469 8.68594L15.6348 12.2809C15.3482 12.5378 15.223 12.9407 15.3106 13.3246L16.5363 18.6999C16.744 19.6106 15.7969 20.3305 15.033 19.8424L10.5245 16.9619C10.2025 16.7561 9.7975 16.7561 9.47548 16.9619L4.96699 19.8424C4.20311 20.3305 3.25596 19.6106 3.46363 18.6999L4.68942 13.3246C4.77698 12.9407 4.65182 12.5378 4.36526 12.2809L0.353062 8.68594C-0.326718 8.07684 0.0350679 6.91215 0.927291 6.83732L6.19336 6.39571C6.5695 6.36417 6.89716 6.11516 7.04207 5.75071L9.07088 0.648363Z" fill="#0A0A0A"/>
<path d="M39.0709 0.648363C39.4146 -0.216122 40.5854 -0.216121 40.9291 0.648365L42.9579 5.75071C43.1029 6.11516 43.4306 6.36417 43.8067 6.39571L49.0727 6.83732C49.9649 6.91215 50.3267 8.07684 49.6469 8.68594L45.6348 12.2809C45.3482 12.5378 45.223 12.9407 45.3106 13.3246L46.5363 18.6999C46.744 19.6106 45.7969 20.3305 45.033 19.8424L40.5245 16.9619C40.2025 16.7561 39.7975 16.7561 39.4755 16.9619L34.967 19.8424C34.2031 20.3305 33.256 19.6106 33.4636 18.6999L34.6894 13.3246C34.777 12.9407 34.6518 12.5378 34.3653 12.2809L30.3531 8.68594C29.6733 8.07684 30.0351 6.91215 30.9273 6.83732L36.1934 6.39571C36.5695 6.36417 36.8972 6.11516 37.0421 5.75071L39.0709 0.648363Z" fill="#0A0A0A"/>
<path d="M69.0709 0.648363C69.4146 -0.216122 70.5854 -0.216121 70.9291 0.648365L72.9579 5.75071C73.1029 6.11516 73.4306 6.36417 73.8067 6.39571L79.0727 6.83732C79.9649 6.91215 80.3267 8.07684 79.6469 8.68594L75.6348 12.2809C75.3482 12.5378 75.223 12.9407 75.3106 13.3246L76.5363 18.6999C76.744 19.6106 75.7969 20.3305 75.033 19.8424L70.5245 16.9619C70.2025 16.7561 69.7975 16.7561 69.4755 16.9619L64.967 19.8424C64.2031 20.3305 63.256 19.6106 63.4636 18.6999L64.6894 13.3246C64.777 12.9407 64.6518 12.5378 64.3653 12.2809L60.3531 8.68594C59.6733 8.07684 60.0351 6.91215 60.9273 6.83732L66.1934 6.39571C66.5695 6.36417 66.8972 6.11516 67.0421 5.75071L69.0709 0.648363Z" fill="#0A0A0A"/>
<path d="M99.0709 0.648363C99.4146 -0.216122 100.585 -0.216121 100.929 0.648365L102.958 5.75071C103.103 6.11516 103.431 6.36417 103.807 6.39571L109.073 6.83732C109.965 6.91215 110.327 8.07684 109.647 8.68594L105.635 12.2809C105.348 12.5378 105.223 12.9407 105.311 13.3246L106.536 18.6999C106.744 19.6106 105.797 20.3305 105.033 19.8424L100.525 16.9619C100.202 16.7561 99.7975 16.7561 99.4755 16.9619L94.967 19.8424C94.2031 20.3305 93.256 19.6106 93.4636 18.6999L94.6894 13.3246C94.777 12.9407 94.6518 12.5378 94.3653 12.2809L90.3531 8.68594C89.6733 8.07684 90.0351 6.91215 90.9273 6.83732L96.1934 6.39571C96.5695 6.36417 96.8972 6.11516 97.0421 5.75071L99.0709 0.648363Z" fill="#0A0A0A"/>
<path d="M129.071 0.648363C129.415 -0.216122 130.585 -0.216121 130.929 0.648365L132.958 5.75071C133.103 6.11516 133.431 6.36417 133.807 6.39571L139.073 6.83732C139.965 6.91215 140.327 8.07684 139.647 8.68594L135.635 12.2809C135.348 12.5378 135.223 12.9407 135.311 13.3246L136.536 18.6999C136.744 19.6106 135.797 20.3305 135.033 19.8424L130.525 16.9619C130.202 16.7561 129.797 16.7561 129.475 16.9619L124.967 19.8424C124.203 20.3305 123.256 19.6106 123.464 18.6999L124.689 13.3246C124.777 12.9407 124.652 12.5378 124.365 12.2809L120.353 8.68594C119.673 8.07684 120.035 6.91215 120.927 6.83732L126.193 6.39571C126.569 6.36417 126.897 6.11516 127.042 5.75071L129.071 0.648363Z" fill="#0A0A0A"/>
</svg>
